<?xml version="1.0" standalone="no"?>
<!DOCTYPE svg PUBLIC "-//W3C//DTD SVG 20010904//EN"
 "http://www.w3.org/TR/2001/REC-SVG-20010904/DTD/svg10.dtd">
<svg version="1.0" xmlns="http://www.w3.org/2000/svg"
 width="480.000000pt" height="192.000000pt" viewBox="0 0 480.000000 192.000000"
 preserveAspectRatio="xMidYMid meet">

<g transform="translate(0.000000,192.000000) scale(0.100000,-0.100000)"
fill="#000000" stroke="none">
<path d="M2301 1737 c-6 -29 -26 -128 -45 -222 -20 -93 -34 -171 -32 -173 4
-3 370 263 409 296 19 16 23 14 -280 135 l-42 16 -10 -52z m151 -28 c173 -69
175 -47 -17 -188 -91 -68 -169 -121 -172 -118 -5 6 55 323 64 340 7 12 18 9
125 -34z"/>
<path d="M1350 1623 c-52 -76 -133 -195 -182 -265 -82 -119 -88 -131 -88 -177
l0 -50 43 -3 42 -3 -3 -235 c-3 -223 -5 -238 -27 -285 -13 -28 -40 -65 -59
-84 l-35 -34 147 -114 c81 -63 155 -118 164 -123 14 -8 38 13 137 121 67 72
121 134 121 138 0 3 -32 27 -71 51 -40 25 -78 54 -86 66 -11 17 -13 70 -11
260 l3 239 93 3 92 3 0 124 0 125 -91 0 -92 0 6 57 c3 31 18 112 33 180 15 68
25 125 22 128 -2 3 -18 8 -35 11 -29 6 -32 2 -123 -133z m135 95 c-16 -51 -47
-212 -53 -277 l-8 -80 91 -3 90 -3 0 -100 0 -100 -92 -3 -93 -3 0 -252 c0
-139 3 -262 6 -274 4 -14 35 -41 80 -70 l73 -46 -58 -66 c-33 -36 -81 -90
-108 -120 l-48 -53 -140 107 c-77 59 -142 109 -144 111 -2 2 14 23 36 48 61
70 65 91 70 369 l5 247 -46 0 c-45 0 -46 1 -46 33 0 25 25 69 109 192 60 88
139 204 176 258 45 66 72 97 85 97 11 0 18 -5 15 -12z"/>
<path d="M3488 1666 c-76 -40 -140 -75 -142 -77 -3 -2 22 -38 55 -79 86 -107
156 -212 144 -217 -5 -2 -80 -36 -165 -77 l-155 -74 1 -321 c2 -368 -7 -332
105 -407 51 -34 337 -174 355 -174 1 0 17 27 34 59 44 82 109 152 234 251
l108 85 -6 81 c-15 211 -88 466 -194 679 -65 131 -209 346 -230 344 -4 0 -69
-33 -144 -73z m159 27 c106 -135 235 -370 289 -526 43 -127 85 -321 98 -459
l6 -56 -103 -85 c-120 -99 -188 -171 -229 -245 -17 -28 -31 -52 -33 -52 -1 0
-62 27 -135 60 -127 58 -204 103 -262 152 l-26 23 -5 308 c-2 214 0 310 7 315
6 5 82 42 169 82 86 40 157 77 157 82 0 13 -89 143 -149 218 -34 42 -48 67
-41 74 11 11 221 123 234 125 5 1 15 -7 23 -16z"/>
<path d="M3559 1183 c-22 -20 -49 -54 -60 -75 -31 -60 -42 -182 -30 -327 11
-124 11 -126 43 -155 45 -39 182 -103 240 -111 l47 -7 -4 33 c-2 19 -7 77 -10
129 -8 155 -51 317 -127 483 -17 37 -37 67 -44 67 -8 0 -32 -17 -55 -37z m85
-53 c68 -150 113 -334 123 -494 l6 -99 -39 6 c-41 7 -163 64 -203 96 -30 23
-39 79 -40 247 -1 148 14 208 68 264 21 22 42 40 48 40 6 0 22 -27 37 -60z"/>
<path d="M2273 1258 l-81 -103 39 -42 39 -43 -1 -112 c0 -62 -4 -188 -7 -279
-7 -160 -8 -167 -35 -208 -16 -24 -27 -44 -25 -45 2 -1 50 -40 108 -87 58 -47
110 -88 117 -92 7 -5 51 41 119 123 59 71 110 130 113 130 3 0 65 -60 138
-132 l133 -133 130 130 c71 71 130 134 130 140 0 6 -59 69 -130 140 l-130 130
-133 -133 -133 -132 -45 28 c-70 45 -71 52 -59 333 8 192 14 258 30 308 11 36
18 66 17 68 -7 7 -236 113 -244 113 -5 0 -45 -46 -90 -102z m208 25 c88 -41
100 -49 94 -67 -27 -92 -34 -171 -37 -395 l-3 -243 43 -39 44 -38 -92 -113
c-51 -62 -97 -112 -102 -110 -5 1 -51 37 -103 79 l-93 76 27 50 c26 51 26 52
29 315 4 279 0 308 -42 337 -19 14 -19 17 -7 38 26 41 123 157 132 157 5 0 54
-21 110 -47z m569 -668 l115 -115 -118 -118 -117 -117 -117 117 -118 118 115
115 c63 63 117 115 120 115 3 0 57 -52 120 -115z"/>
<path d="M1777 642 c-70 -70 -127 -132 -127 -137 0 -6 59 -69 130 -140 l130
-130 130 130 c72 71 130 134 130 140 0 10 -250 265 -260 265 -3 0 -63 -57
-133 -128z m253 -27 l115 -115 -118 -117 -118 -117 -114 114 c-63 63 -114 119
-112 123 3 11 220 227 227 227 3 0 57 -52 120 -115z"/>
</g>
</svg>
