<?xml version="1.0" standalone="no"?>
<!DOCTYPE svg PUBLIC "-//W3C//DTD SVG 20010904//EN"
 "http://www.w3.org/TR/2001/REC-SVG-20010904/DTD/svg10.dtd">
<svg version="1.0" xmlns="http://www.w3.org/2000/svg"
 width="1095.000000pt" height="894.000000pt" viewBox="0 0 1095.000000 894.000000"
 preserveAspectRatio="xMidYMid meet">

<g transform="translate(0.000000,894.000000) scale(0.100000,-0.100000)"
fill="#000000" stroke="none">
<path d="M940 7921 c-130 -41 -193 -157 -156 -283 19 -66 79 -132 134 -148 21
-6 237 -51 482 -100 244 -50 459 -95 478 -101 18 -6 39 -21 47 -32 12 -20 196
-466 485 -1177 59 -146 187 -461 285 -700 97 -239 206 -505 240 -590 35 -85
99 -243 143 -350 75 -184 358 -878 497 -1220 35 -85 91 -222 125 -305 34 -82
70 -170 80 -195 9 -25 79 -198 155 -385 114 -280 144 -346 173 -375 20 -19 30
-28 24 -19 -7 9 -8 20 -4 24 4 5 1 5 -5 1 -8 -4 -13 -2 -13 6 0 15 15 18 105
20 68 1 168 -25 205 -54 l25 -20 -147 4 c-81 1 -140 0 -130 -4 9 -4 801 -7
1758 -7 l1742 -1 53 28 c77 40 112 93 117 178 5 82 -16 141 -65 185 -73 63 45
59 -1680 59 -1057 0 -1590 4 -1615 10 -65 19 -84 50 -199 330 -60 146 -112
273 -115 282 -5 17 83 18 1851 18 1654 0 1860 2 1893 16 48 19 95 66 116 112
9 21 70 305 136 632 65 327 203 1010 305 1518 139 690 184 933 179 960 -14 77
-66 145 -133 175 -19 9 -760 13 -2890 17 l-2864 5 -139 340 c-77 187 -182 445
-234 574 -117 287 -132 319 -155 331 -10 6 -128 32 -261 59 -134 27 -394 80
-578 117 -346 70 -407 79 -450 65z m334 -105 c-3 -25 2 -40 21 -62 14 -16 25
-36 25 -44 0 -18 -19 -40 -34 -40 -6 0 -5 5 2 12 18 18 15 37 -13 70 -27 32
-30 49 -15 79 15 28 19 24 14 -15z m149 17 c31 -4 36 -8 26 -19 -18 -22 -53
-16 -85 13 -29 26 -29 27 -4 19 14 -5 42 -10 63 -13z m-208 -164 c25 -23 42
-46 39 -51 -3 -5 -16 1 -28 14 -53 55 -63 61 -83 46 -26 -19 -23 -28 21 -70
52 -49 39 -62 -14 -14 -34 30 -44 35 -60 26 -29 -16 -24 -40 17 -82 20 -21 32
-38 26 -38 -16 0 -83 77 -83 96 0 17 93 114 110 114 6 0 31 -19 55 -41z m-178
-172 c33 -29 20 -33 -22 -7 -27 17 -39 20 -48 11 -15 -15 -27 -14 -27 3 0 31
60 27 97 -7z m2173 -1826 c0 -170 3 -316 6 -325 3 -9 2 -16 -2 -16 -8 0 -248
581 -261 631 -5 18 1 19 126 19 l131 0 0 -309z m870 -71 l0 -380 -365 0 -365
0 1 372 c0 205 3 376 5 380 3 5 167 8 365 8 l359 0 0 -380z m870 0 l0 -380
-90 0 c-65 0 -90 -3 -91 -12 0 -10 -2 -10 -6 0 -3 9 -68 12 -274 12 l-269 0 0
380 0 380 365 0 365 0 0 -380z m868 -2 l2 -378 -365 0 -365 0 0 380 0 380 363
-2 362 -3 3 -377z m862 2 l0 -380 -362 0 -363 0 3 380 2 380 360 0 360 0 0
-380z m870 0 l0 -380 -365 0 -365 0 0 373 c0 206 3 377 7 380 3 4 168 7 365 7
l358 0 0 -380z m590 376 c0 -2 -34 -171 -75 -377 -41 -205 -75 -374 -75 -376
0 -2 -67 -3 -150 -3 l-150 0 0 380 0 380 225 0 c124 0 225 -2 225 -4z m-3412
-786 c15 -25 58 -26 84 -3 17 15 18 15 18 0 0 -25 -45 -50 -72 -41 -24 7 -58
40 -58 56 0 15 15 8 28 -12z m-36 -79 c23 -27 4 -27 -29 -1 -14 11 -32 20 -39
20 -8 0 -19 -9 -26 -20 -7 -11 -21 -20 -30 -20 -16 0 -16 2 2 20 11 11 20 24
20 29 0 30 70 10 102 -28z m-297 19 c17 -7 16 -9 -9 -9 -16 -1 -38 -8 -48 -18
-10 -9 -18 -11 -18 -5 0 10 39 43 50 41 3 0 14 -4 25 -9z m-2 -37 c-7 -2 -19
-2 -25 0 -7 3 -2 5 12 5 14 0 19 -2 13 -5z m-313 -378 l0 -365 -237 0 -238 0
-29 73 c-16 39 -72 176 -123 302 -89 215 -114 302 -99 340 5 13 60 15 366 15
l360 0 0 -365z m870 0 l0 -365 -365 0 -365 0 0 365 0 365 365 0 365 0 0 -365z
m870 0 l0 -365 -365 0 -365 0 0 365 0 365 365 0 365 0 0 -365z m860 0 l0 -365
-362 0 -363 0 3 365 2 365 360 0 360 0 0 -365z m870 0 l0 -365 -365 0 -365 0
0 365 0 365 365 0 365 0 0 -365z m410 358 c-1 -23 -168 -824 -172 -829 -3 -2
-3 20 -1 51 l5 55 -51 0 -51 0 0 365 0 365 135 0 c74 0 135 -3 135 -7z m-3767
-387 c9 -7 17 -19 17 -27 0 -10 -3 -11 -8 -2 -4 6 -14 12 -22 13 -54 8 -56
-24 -6 -72 22 -20 37 -40 33 -44 -4 -4 -24 8 -45 28 -20 20 -45 34 -54 33 -11
-2 -18 3 -18 11 0 9 5 12 10 9 6 -3 13 2 17 12 8 25 34 53 47 53 6 0 19 -7 29
-14z m3374 -68 c-2 -13 -4 -5 -4 17 -1 22 1 32 4 23 2 -10 2 -28 0 -40z
m-3439 -99 c13 -16 20 -29 15 -29 -13 0 -53 39 -53 50 0 17 14 10 38 -21z
m-298 -193 c0 -20 28 -46 50 -46 10 0 32 11 48 25 17 14 33 22 36 17 3 -5 -13
-24 -35 -41 -37 -30 -42 -31 -69 -20 -36 17 -68 79 -40 79 6 0 10 -6 10 -14z
m58 3 c-2 -6 -8 -10 -13 -10 -5 0 -11 4 -13 10 -2 6 4 11 13 11 9 0 15 -5 13
-11z m3347 -1 c-25 -15 -141 -15 -175 0 -20 9 -2 11 85 11 89 0 106 -2 90 -11z
m-3485 -59 c-9 -15 -8 -24 1 -35 9 -11 8 -14 -4 -14 -8 0 -18 7 -21 16 -7 18
10 54 25 54 6 0 6 -8 -1 -21z m-108 -39 c20 -19 36 -20 230 -20 l208 0 0 -380
0 -380 -54 0 -54 0 -17 43 c-13 34 -167 412 -221 545 -13 31 -15 32 -30 18
-21 -22 -32 -20 -71 10 -32 24 -39 46 -27 78 10 27 21 18 16 -13 -3 -21 2 -35
17 -48 26 -22 41 -23 60 -5 11 11 10 21 -11 67 -14 30 -27 53 -30 50 -2 -3
-17 9 -33 25 -32 33 -17 42 17 10z m1308 -400 l0 -380 -365 0 -365 0 0 380 0
380 365 0 365 0 0 -380z m870 0 l0 -380 -365 0 -365 0 0 380 0 380 365 0 365
0 0 -380z m860 0 l0 -380 -360 0 -360 0 0 380 0 380 360 0 360 0 0 -380z m870
0 l0 -380 -365 0 -365 0 0 380 0 380 365 0 365 0 0 -380z m230 368 c0 -14 -79
-419 -85 -433 -2 -5 -4 92 -4 218 l-1 227 45 0 c28 0 45 -4 45 -12z m-13
-1951 c3 -29 0 -38 -9 -35 -7 3 -14 14 -16 26 -4 26 -15 28 -32 7 -10 -12 -9
-20 4 -40 9 -14 21 -26 26 -26 6 -1 16 -2 23 -3 6 -1 22 7 35 18 19 17 22 17
22 3 0 -9 -12 -24 -26 -33 -23 -16 -28 -16 -60 -1 -41 20 -59 58 -43 90 28 53
70 49 76 -6z m-93 -120 c20 -18 36 -40 36 -48 0 -8 -13 0 -31 19 -18 20 -41
34 -57 35 -42 3 -40 -31 4 -75 24 -25 31 -38 21 -38 -9 0 -22 9 -30 20 -7 10
-26 26 -42 34 -26 14 -30 13 -41 -2 -15 -20 2 -53 43 -85 13 -10 20 -23 17
-29 -7 -10 -68 44 -86 75 -13 24 15 67 43 67 11 0 18 4 15 8 -9 16 25 52 48
52 13 0 40 -15 60 -33z m-284 13 c11 -7 7 -10 -17 -10 -21 0 -37 -7 -47 -22
-9 -12 -19 -18 -23 -14 -8 8 45 56 62 56 6 0 17 -5 25 -10z m-36 -54 c-4 -17
0 -27 13 -35 10 -6 14 -11 9 -11 -5 0 -18 7 -27 16 -14 13 -16 21 -8 35 14 26
21 24 13 -5z m56 9 c7 -9 10 -18 6 -22 -3 -3 -6 -1 -6 6 0 6 -10 16 -22 21
-16 6 -18 9 -7 9 9 1 22 -6 29 -14z m-45 -75 c13 0 31 10 39 22 13 18 16 19
16 6 0 -20 -29 -38 -59 -38 -23 0 -61 33 -61 53 0 6 10 0 21 -15 12 -17 30
-28 44 -28z m119 -55 c25 -25 38 -45 31 -45 -15 0 -84 68 -85 83 0 14 11 7 54
-38z m-89 -36 c-4 -5 -16 -9 -28 -9 -20 0 -20 0 -2 14 21 15 40 12 30 -5z"/>
<path d="M4472 1740 c-29 -4 -56 -11 -59 -14 -3 -3 2 -21 11 -40 9 -19 19 -49
22 -66 8 -39 -15 -140 -33 -147 -7 -3 -13 -11 -13 -18 0 -20 -79 -81 -136
-107 -47 -21 -144 -31 -159 -17 -3 4 -3 24 1 45 6 35 8 36 22 18 12 -16 14
-16 9 -1 -6 15 0 17 43 17 57 0 89 11 125 42 32 27 68 95 61 113 -2 7 0 17 6
23 6 6 6 12 -1 16 -15 10 -14 49 2 65 10 10 9 11 -4 6 -10 -4 -20 -2 -23 4 -6
9 30 27 47 23 4 -1 7 3 7 8 0 14 -5 13 -62 -16 -171 -86 -279 -297 -251 -488
56 -390 530 -551 807 -274 152 152 188 364 95 552 -41 80 -81 127 -149 175
-109 77 -229 103 -368 81z m95 -28 c26 -92 -19 -260 -68 -258 -14 1 -23 -4
-21 -11 1 -7 -2 -13 -8 -13 -14 0 -13 4 15 62 27 55 34 143 16 205 -8 26 -6
32 7 35 43 9 52 6 59 -20z m-294 -101 c-2 -6 1 -11 7 -11 27 0 -14 -81 -51
-101 -19 -10 -20 -9 -15 13 l6 23 -11 -22 c-8 -14 -21 -23 -36 -23 -31 0 -26
21 10 38 15 7 32 22 38 34 8 15 8 19 0 14 -19 -12 -12 7 12 31 22 22 44 25 40
4z m365 -189 c43 -20 83 -80 89 -134 6 -55 -28 -124 -76 -155 -47 -32 -135
-32 -182 0 -48 31 -82 100 -76 155 6 54 49 120 90 137 26 11 28 14 11 17 -10
3 10 3 46 0 36 -2 80 -11 98 -20z"/>
<path d="M4531 1674 c0 -11 3 -14 6 -6 3 7 2 16 -1 19 -3 4 -6 -2 -5 -13z"/>
<path d="M4531 1524 c0 -11 3 -14 6 -6 3 7 2 16 -1 19 -3 4 -6 -2 -5 -13z"/>
<path d="M6951 1734 c-79 -21 -148 -62 -211 -124 -90 -91 -140 -208 -140 -331
0 -66 9 -121 20 -114 4 2 5 -6 3 -18 -7 -37 46 -135 110 -204 260 -278 715
-154 812 222 62 243 -97 504 -348 571 -66 18 -177 17 -246 -2z m238 -37 c6 -8
7 -18 3 -22 -4 -5 -1 -5 6 -1 8 5 22 -2 37 -20 37 -44 20 -45 -26 -3 -23 22
-46 39 -50 39 -4 0 -15 -10 -23 -22 -14 -20 -13 -23 27 -59 22 -21 38 -41 34
-45 -3 -4 -25 10 -47 30 -34 30 -44 35 -60 26 -29 -16 -24 -40 17 -82 20 -21
32 -38 26 -38 -13 0 -83 76 -83 91 0 20 21 49 35 49 8 0 15 5 15 10 0 16 47
60 63 60 8 0 20 -6 26 -13z m113 -22 c0 -5 -5 -11 -10 -13 -5 -1 -9 4 -9 13 0
9 4 14 9 13 5 -2 10 -8 10 -13z m-265 -174 c12 -9 27 -26 34 -38 7 -13 21 -23
31 -23 35 0 96 -39 119 -77 16 -26 23 -52 23 -88 0 -99 -66 -165 -162 -165
-64 0 -102 18 -138 65 -41 54 -44 119 -9 183 21 39 37 55 66 66 22 9 47 16 56
16 11 0 6 10 -18 33 -19 19 -43 33 -54 33 -26 -1 -51 -51 -35 -71 6 -8 8 -19
4 -26 -4 -8 -11 -4 -20 12 -20 36 -17 57 11 85 27 27 50 26 92 -5z m-157 -142
c0 -21 -4 -39 -10 -39 -5 0 -10 8 -10 18 0 9 -5 24 -10 32 -9 13 -11 13 -20 0
-26 -39 -2 -82 45 -82 26 0 34 -13 13 -21 -24 -8 -69 15 -79 40 -14 37 -11 52
15 78 34 34 56 24 56 -26z m-109 -153 c26 -23 38 -46 24 -46 -8 0 -63 63 -76
87 -10 18 -9 26 2 39 13 16 14 14 17 -18 2 -24 12 -44 33 -62z m-41 -85 c0
-40 -62 -86 -74 -56 -3 9 4 15 17 17 16 2 23 11 25 33 2 24 -6 38 -43 75 -25
24 -45 51 -45 60 0 8 27 -13 60 -49 33 -35 60 -71 60 -80z"/>
<path d="M4401 1674 c0 -11 3 -14 6 -6 3 7 2 16 -1 19 -3 4 -6 -2 -5 -13z"/>
</g>
</svg>
