<?xml version="1.0" standalone="no"?>
<!DOCTYPE svg PUBLIC "-//W3C//DTD SVG 20010904//EN"
 "http://www.w3.org/TR/2001/REC-SVG-20010904/DTD/svg10.dtd">
<svg version="1.0" xmlns="http://www.w3.org/2000/svg"
 width="30.000000pt" height="29.000000pt" viewBox="0 0 30.000000 29.000000"
 preserveAspectRatio="xMidYMid meet">

<g transform="translate(0.000000,29.000000) scale(0.100000,-0.100000)"
fill="#000000" stroke="none">
<path d="M12 283 c20 -5 23 -14 38 -118 7 -44 17 -86 22 -92 7 -9 40 -12 107
-11 l96 2 -89 3 c-89 4 -116 13 -116 39 0 10 25 14 102 16 l102 3 13 45 c7 25
11 51 8 58 -3 9 -37 12 -124 12 -118 0 -119 0 -125 25 -5 18 -13 25 -29 24
-16 -1 -17 -3 -5 -6z m270 -58 c3 -3 0 -25 -7 -48 l-12 -42 -93 -3 c-104 -3
-110 0 -110 61 l0 37 108 0 c60 0 111 -2 114 -5z"/>
<path d="M82 23 c2 -10 10 -18 18 -18 8 0 16 8 18 18 2 12 -3 17 -18 17 -15 0
-20 -5 -18 -17z"/>
<path d="M222 23 c5 -26 38 -29 38 -4 0 15 -6 21 -21 21 -14 0 -19 -5 -17 -17z
m28 -3 c0 -5 -2 -10 -4 -10 -3 0 -8 5 -11 10 -3 6 -1 10 4 10 6 0 11 -4 11
-10z"/>
</g>
</svg>
